<?xml version="1.0" encoding="UTF-8"?>
<svg xmlns="http://www.w3.org/2000/svg" version="1.1" width="200" height="200" viewBox="0 0 200 200"><rect x="0" y="0" width="200" height="200" fill="#ffffff"/><g transform="scale(6.897)"><g transform="translate(0,0)"><path fill-rule="evenodd" d="M9 0L9 1L8 1L8 2L9 2L9 3L8 3L8 4L9 4L9 5L8 5L8 7L9 7L9 8L6 8L6 9L9 9L9 8L10 8L10 9L11 9L11 10L5 10L5 8L0 8L0 9L3 9L3 10L2 10L2 11L3 11L3 12L1 12L1 14L2 14L2 16L1 16L1 15L0 15L0 21L1 21L1 18L2 18L2 17L3 17L3 18L4 18L4 21L7 21L7 20L5 20L5 18L6 18L6 19L9 19L9 20L10 20L10 21L8 21L8 23L9 23L9 24L8 24L8 29L15 29L15 28L16 28L16 27L17 27L17 26L19 26L19 25L18 25L18 24L20 24L20 25L23 25L23 26L21 26L21 27L18 27L18 28L17 28L17 29L18 29L18 28L19 28L19 29L20 29L20 28L23 28L23 29L24 29L24 27L25 27L25 28L26 28L26 29L27 29L27 28L28 28L28 26L29 26L29 25L28 25L28 26L24 26L24 25L25 25L25 24L26 24L26 25L27 25L27 24L26 24L26 23L27 23L27 22L29 22L29 20L28 20L28 19L27 19L27 16L28 16L28 15L27 15L27 12L28 12L28 11L27 11L27 12L25 12L25 13L22 13L22 12L21 12L21 11L22 11L22 10L25 10L25 9L26 9L26 8L25 8L25 9L24 9L24 8L23 8L23 9L22 9L22 8L17 8L17 4L18 4L18 5L20 5L20 7L21 7L21 5L20 5L20 3L21 3L21 2L18 2L18 3L17 3L17 4L16 4L16 3L13 3L13 2L12 2L12 3L11 3L11 2L10 2L10 0ZM13 0L13 1L14 1L14 2L16 2L16 1L17 1L17 0L16 0L16 1L14 1L14 0ZM18 0L18 1L21 1L21 0ZM9 3L9 4L11 4L11 3ZM18 3L18 4L19 4L19 3ZM12 4L12 5L10 5L10 6L9 6L9 7L10 7L10 8L11 8L11 9L12 9L12 10L11 10L11 11L10 11L10 13L9 13L9 14L8 14L8 13L6 13L6 12L8 12L8 11L6 11L6 12L5 12L5 10L4 10L4 13L5 13L5 14L4 14L4 15L3 15L3 17L6 17L6 18L7 18L7 17L6 17L6 16L8 16L8 17L9 17L9 19L10 19L10 18L11 18L11 21L10 21L10 23L12 23L12 24L14 24L14 23L13 23L13 22L11 22L11 21L13 21L13 20L15 20L15 21L14 21L14 22L16 22L16 23L15 23L15 24L16 24L16 25L15 25L15 26L14 26L14 25L13 25L13 26L11 26L11 24L9 24L9 25L10 25L10 26L9 26L9 27L10 27L10 28L15 28L15 26L16 26L16 25L17 25L17 24L18 24L18 22L20 22L20 21L19 21L19 20L20 20L20 19L22 19L22 20L24 20L24 19L25 19L25 21L26 21L26 20L27 20L27 19L25 19L25 18L22 18L22 17L26 17L26 16L27 16L27 15L26 15L26 13L25 13L25 14L24 14L24 16L21 16L21 15L22 15L22 14L21 14L21 15L20 15L20 14L19 14L19 13L21 13L21 12L19 12L19 11L21 11L21 10L18 10L18 11L17 11L17 10L16 10L16 9L12 9L12 8L11 8L11 7L12 7L12 6L13 6L13 8L14 8L14 6L15 6L15 7L16 7L16 6L15 6L15 5L16 5L16 4L14 4L14 5L13 5L13 4ZM10 6L10 7L11 7L11 6ZM18 6L18 7L19 7L19 6ZM27 8L27 9L28 9L28 10L29 10L29 9L28 9L28 8ZM13 10L13 11L14 11L14 12L13 12L13 13L11 13L11 14L9 14L9 17L10 17L10 15L11 15L11 14L13 14L13 15L12 15L12 16L11 16L11 17L15 17L15 15L16 15L16 16L17 16L17 18L12 18L12 20L13 20L13 19L15 19L15 20L16 20L16 22L17 22L17 21L18 21L18 20L16 20L16 19L17 19L17 18L18 18L18 19L19 19L19 18L21 18L21 17L20 17L20 16L19 16L19 15L18 15L18 16L17 16L17 13L18 13L18 12L16 12L16 10L15 10L15 11L14 11L14 10ZM11 11L11 12L12 12L12 11ZM23 11L23 12L24 12L24 11ZM14 12L14 14L16 14L16 13L15 13L15 12ZM28 13L28 14L29 14L29 13ZM6 14L6 15L7 15L7 14ZM13 15L13 16L14 16L14 15ZM18 16L18 17L19 17L19 16ZM28 17L28 18L29 18L29 17ZM2 19L2 21L3 21L3 19ZM21 21L21 24L24 24L24 21ZM22 22L22 23L23 23L23 22ZM16 23L16 24L17 24L17 23ZM13 26L13 27L14 27L14 26ZM26 27L26 28L27 28L27 27ZM0 0L0 7L7 7L7 0ZM1 1L1 6L6 6L6 1ZM2 2L2 5L5 5L5 2ZM22 0L22 7L29 7L29 0ZM23 1L23 6L28 6L28 1ZM24 2L24 5L27 5L27 2ZM0 22L0 29L7 29L7 22ZM1 23L1 28L6 28L6 23ZM2 24L2 27L5 27L5 24Z" fill="#000000"/></g></g></svg>
