<?xml version="1.0" encoding="UTF-8"?>
<svg xmlns="http://www.w3.org/2000/svg" version="1.1" width="200" height="200" viewBox="0 0 200 200"><rect x="0" y="0" width="200" height="200" fill="#ffffff"/><g transform="scale(6.897)"><g transform="translate(0,0)"><path fill-rule="evenodd" d="M8 0L8 1L9 1L9 2L8 2L8 5L9 5L9 4L11 4L11 5L10 5L10 10L9 10L9 8L8 8L8 10L9 10L9 12L8 12L8 11L7 11L7 10L6 10L6 11L7 11L7 12L5 12L5 13L4 13L4 14L5 14L5 13L7 13L7 14L6 14L6 15L4 15L4 16L2 16L2 17L1 17L1 18L0 18L0 19L1 19L1 18L2 18L2 19L3 19L3 20L1 20L1 21L3 21L3 20L6 20L6 21L7 21L7 20L6 20L6 19L10 19L10 18L11 18L11 17L10 17L10 16L9 16L9 15L10 15L10 13L11 13L11 16L12 16L12 17L13 17L13 16L12 16L12 14L13 14L13 15L14 15L14 18L13 18L13 21L15 21L15 22L14 22L14 23L11 23L11 20L12 20L12 19L11 19L11 20L10 20L10 22L9 22L9 20L8 20L8 22L9 22L9 25L8 25L8 29L9 29L9 28L10 28L10 27L11 27L11 26L12 26L12 28L11 28L11 29L12 29L12 28L14 28L14 27L15 27L15 26L14 26L14 25L13 25L13 26L12 26L12 24L15 24L15 25L16 25L16 26L17 26L17 25L18 25L18 24L17 24L17 21L19 21L19 19L18 19L18 17L20 17L20 18L22 18L22 16L23 16L23 18L24 18L24 17L25 17L25 16L24 16L24 15L27 15L27 17L26 17L26 18L25 18L25 19L26 19L26 20L24 20L24 19L23 19L23 20L20 20L20 22L19 22L19 23L20 23L20 26L18 26L18 27L19 27L19 29L22 29L22 28L24 28L24 29L25 29L25 28L26 28L26 27L27 27L27 29L28 29L28 27L29 27L29 25L28 25L28 27L27 27L27 24L26 24L26 27L25 27L25 28L24 28L24 26L25 26L25 23L26 23L26 22L27 22L27 23L28 23L28 22L29 22L29 21L27 21L27 18L28 18L28 15L29 15L29 13L27 13L27 12L26 12L26 11L28 11L28 12L29 12L29 11L28 11L28 10L29 10L29 8L28 8L28 10L26 10L26 11L25 11L25 9L27 9L27 8L24 8L24 9L22 9L22 8L21 8L21 4L20 4L20 3L21 3L21 0L18 0L18 1L17 1L17 2L19 2L19 1L20 1L20 3L19 3L19 5L18 5L18 3L16 3L16 2L15 2L15 0L14 0L14 2L13 2L13 0L12 0L12 1L11 1L11 0L10 0L10 1L9 1L9 0ZM11 2L11 4L12 4L12 3L13 3L13 2ZM14 2L14 6L13 6L13 5L12 5L12 6L11 6L11 8L12 8L12 6L13 6L13 8L14 8L14 11L11 11L11 13L12 13L12 12L13 12L13 14L14 14L14 15L17 15L17 16L16 16L16 19L15 19L15 21L17 21L17 20L16 20L16 19L17 19L17 17L18 17L18 15L17 15L17 13L16 13L16 14L14 14L14 12L15 12L15 11L17 11L17 12L18 12L18 14L19 14L19 13L20 13L20 14L22 14L22 15L23 15L23 14L27 14L27 13L25 13L25 12L22 12L22 13L21 13L21 12L20 12L20 10L19 10L19 12L18 12L18 10L15 10L15 8L16 8L16 9L17 9L17 7L18 7L18 5L17 5L17 7L16 7L16 5L15 5L15 2ZM8 6L8 7L9 7L9 6ZM14 6L14 8L15 8L15 6ZM19 6L19 8L18 8L18 9L20 9L20 6ZM0 8L0 9L3 9L3 11L2 11L2 12L0 12L0 13L3 13L3 11L5 11L5 9L4 9L4 8ZM6 8L6 9L7 9L7 8ZM11 9L11 10L12 10L12 9ZM21 10L21 11L23 11L23 10ZM8 13L8 14L7 14L7 15L6 15L6 16L5 16L5 18L7 18L7 17L6 17L6 16L7 16L7 15L9 15L9 13ZM22 13L22 14L23 14L23 13ZM1 14L1 15L2 15L2 14ZM19 15L19 16L21 16L21 15ZM8 16L8 18L10 18L10 17L9 17L9 16ZM3 17L3 18L4 18L4 17ZM21 21L21 24L24 24L24 21ZM15 22L15 24L16 24L16 22ZM22 22L22 23L23 23L23 22ZM9 25L9 26L11 26L11 25ZM22 25L22 26L20 26L20 27L23 27L23 26L24 26L24 25ZM13 26L13 27L14 27L14 26ZM16 27L16 28L15 28L15 29L16 29L16 28L17 28L17 27ZM0 0L0 7L7 7L7 0ZM1 1L1 6L6 6L6 1ZM2 2L2 5L5 5L5 2ZM22 0L22 7L29 7L29 0ZM23 1L23 6L28 6L28 1ZM24 2L24 5L27 5L27 2ZM0 22L0 29L7 29L7 22ZM1 23L1 28L6 28L6 23ZM2 24L2 27L5 27L5 24Z" fill="#000000"/></g></g></svg>
