<?xml version="1.0" encoding="UTF-8"?>
<svg xmlns="http://www.w3.org/2000/svg" version="1.1" width="200" height="200" viewBox="0 0 200 200"><rect x="0" y="0" width="200" height="200" fill="#ffffff"/><g transform="scale(6.897)"><g transform="translate(0,0)"><path fill-rule="evenodd" d="M9 0L9 1L11 1L11 2L9 2L9 3L8 3L8 5L9 5L9 6L8 6L8 7L9 7L9 9L8 9L8 8L5 8L5 9L7 9L7 10L4 10L4 9L2 9L2 8L0 8L0 12L1 12L1 13L3 13L3 14L5 14L5 15L4 15L4 17L5 17L5 19L4 19L4 18L3 18L3 17L1 17L1 14L0 14L0 21L1 21L1 19L2 19L2 20L5 20L5 21L7 21L7 20L8 20L8 24L9 24L9 22L11 22L11 21L12 21L12 22L13 22L13 23L12 23L12 24L11 24L11 23L10 23L10 24L11 24L11 25L14 25L14 23L16 23L16 22L14 22L14 21L12 21L12 19L14 19L14 20L15 20L15 19L16 19L16 17L17 17L17 18L19 18L19 19L21 19L21 18L20 18L20 17L22 17L22 18L23 18L23 17L22 17L22 16L24 16L24 15L22 15L22 14L23 14L23 10L22 10L22 12L21 12L21 15L20 15L20 17L19 17L19 16L15 16L15 15L17 15L17 14L20 14L20 12L19 12L19 10L21 10L21 8L20 8L20 9L19 9L19 10L16 10L16 8L17 8L17 9L18 9L18 8L17 8L17 6L18 6L18 7L19 7L19 6L18 6L18 5L20 5L20 4L21 4L21 1L20 1L20 2L18 2L18 1L19 1L19 0L17 0L17 2L16 2L16 0L13 0L13 1L12 1L12 0ZM13 1L13 2L12 2L12 4L11 4L11 7L10 7L10 6L9 6L9 7L10 7L10 8L11 8L11 10L10 10L10 9L9 9L9 10L10 10L10 11L9 11L9 12L8 12L8 13L9 13L9 12L10 12L10 11L11 11L11 10L13 10L13 11L12 11L12 12L11 12L11 15L10 15L10 14L7 14L7 13L6 13L6 12L7 12L7 11L8 11L8 10L7 10L7 11L6 11L6 12L5 12L5 11L4 11L4 12L3 12L3 13L4 13L4 12L5 12L5 14L7 14L7 15L6 15L6 16L5 16L5 17L6 17L6 18L7 18L7 19L5 19L5 20L7 20L7 19L8 19L8 20L9 20L9 21L11 21L11 20L9 20L9 18L10 18L10 19L12 19L12 18L15 18L15 17L14 17L14 16L13 16L13 17L12 17L12 15L13 15L13 14L12 14L12 13L13 13L13 12L14 12L14 11L15 11L15 12L16 12L16 14L17 14L17 13L19 13L19 12L18 12L18 11L17 11L17 12L16 12L16 11L15 11L15 10L14 10L14 8L15 8L15 7L16 7L16 5L17 5L17 4L16 4L16 5L15 5L15 7L14 7L14 6L13 6L13 5L12 5L12 4L14 4L14 2L15 2L15 3L16 3L16 2L15 2L15 1ZM17 2L17 3L18 3L18 4L19 4L19 3L18 3L18 2ZM9 3L9 5L10 5L10 3ZM12 6L12 9L13 9L13 8L14 8L14 7L13 7L13 6ZM20 6L20 7L21 7L21 6ZM24 8L24 12L25 12L25 9L26 9L26 10L28 10L28 9L26 9L26 8ZM1 9L1 12L2 12L2 9ZM28 12L28 13L26 13L26 17L24 17L24 18L28 18L28 19L29 19L29 17L27 17L27 14L29 14L29 12ZM24 13L24 14L25 14L25 13ZM2 15L2 16L3 16L3 15ZM8 15L8 16L6 16L6 17L7 17L7 18L8 18L8 17L10 17L10 16L9 16L9 15ZM21 15L21 16L22 16L22 15ZM28 15L28 16L29 16L29 15ZM2 18L2 19L3 19L3 18ZM22 19L22 20L19 20L19 23L18 23L18 24L17 24L17 25L16 25L16 24L15 24L15 29L18 29L18 28L20 28L20 27L21 27L21 25L23 25L23 26L22 26L22 28L23 28L23 26L24 26L24 27L26 27L26 28L24 28L24 29L27 29L27 27L28 27L28 28L29 28L29 27L28 27L28 26L29 26L29 23L27 23L27 22L26 22L26 21L29 21L29 20L26 20L26 21L25 21L25 19ZM16 20L16 21L17 21L17 20ZM21 21L21 24L24 24L24 21ZM22 22L22 23L23 23L23 22ZM19 23L19 24L18 24L18 25L17 25L17 26L16 26L16 27L17 27L17 28L18 28L18 27L20 27L20 25L19 25L19 24L20 24L20 23ZM25 23L25 25L24 25L24 26L26 26L26 27L27 27L27 26L28 26L28 25L27 25L27 23ZM9 25L9 27L8 27L8 29L9 29L9 27L11 27L11 28L10 28L10 29L12 29L12 27L13 27L13 26L10 26L10 25ZM0 0L0 7L7 7L7 0ZM1 1L1 6L6 6L6 1ZM2 2L2 5L5 5L5 2ZM22 0L22 7L29 7L29 0ZM23 1L23 6L28 6L28 1ZM24 2L24 5L27 5L27 2ZM0 22L0 29L7 29L7 22ZM1 23L1 28L6 28L6 23ZM2 24L2 27L5 27L5 24Z" fill="#000000"/></g></g></svg>
