<?xml version="1.0" encoding="UTF-8"?>
<svg xmlns="http://www.w3.org/2000/svg" version="1.1" width="200" height="200" viewBox="0 0 200 200"><rect x="0" y="0" width="200" height="200" fill="#ffffff"/><g transform="scale(6.897)"><g transform="translate(0,0)"><path fill-rule="evenodd" d="M8 0L8 4L9 4L9 5L8 5L8 7L9 7L9 6L10 6L10 9L11 9L11 8L12 8L12 9L13 9L13 10L15 10L15 11L14 11L14 12L13 12L13 11L12 11L12 12L11 12L11 13L10 13L10 14L6 14L6 13L8 13L8 12L10 12L10 11L11 11L11 10L9 10L9 11L8 11L8 9L7 9L7 8L4 8L4 9L7 9L7 10L6 10L6 11L5 11L5 12L4 12L4 10L3 10L3 9L2 9L2 8L0 8L0 9L1 9L1 11L0 11L0 12L1 12L1 11L2 11L2 12L3 12L3 13L2 13L2 14L3 14L3 15L4 15L4 17L1 17L1 16L0 16L0 18L4 18L4 19L3 19L3 20L0 20L0 21L5 21L5 20L6 20L6 21L8 21L8 22L9 22L9 23L8 23L8 25L10 25L10 26L9 26L9 27L8 27L8 29L9 29L9 28L10 28L10 27L11 27L11 24L12 24L12 25L13 25L13 26L15 26L15 27L14 27L14 28L13 28L13 27L12 27L12 28L11 28L11 29L12 29L12 28L13 28L13 29L15 29L15 28L16 28L16 29L22 29L22 28L24 28L24 29L25 29L25 27L26 27L26 26L27 26L27 29L28 29L28 28L29 28L29 25L28 25L28 26L27 26L27 25L25 25L25 23L27 23L27 22L25 22L25 21L26 21L26 20L22 20L22 19L21 19L21 20L20 20L20 22L19 22L19 23L20 23L20 24L19 24L19 25L17 25L17 24L18 24L18 23L17 23L17 22L18 22L18 20L19 20L19 17L20 17L20 18L21 18L21 17L20 17L20 16L19 16L19 13L20 13L20 14L21 14L21 16L23 16L23 15L24 15L24 16L25 16L25 17L24 17L24 19L27 19L27 20L28 20L28 23L29 23L29 17L28 17L28 16L29 16L29 13L28 13L28 12L29 12L29 8L25 8L25 9L24 9L24 8L23 8L23 9L22 9L22 10L23 10L23 13L20 13L20 12L19 12L19 13L18 13L18 11L17 11L17 9L18 9L18 8L19 8L19 9L20 9L20 10L21 10L21 9L20 9L20 8L19 8L19 6L20 6L20 7L21 7L21 4L20 4L20 3L21 3L21 2L20 2L20 1L19 1L19 0L18 0L18 1L17 1L17 0L16 0L16 1L15 1L15 0L13 0L13 1L11 1L11 2L12 2L12 5L13 5L13 2L14 2L14 3L15 3L15 2L16 2L16 1L17 1L17 3L16 3L16 4L17 4L17 5L16 5L16 7L15 7L15 6L14 6L14 7L13 7L13 6L12 6L12 7L11 7L11 3L10 3L10 2L9 2L9 0ZM18 1L18 3L17 3L17 4L18 4L18 3L19 3L19 1ZM19 4L19 5L18 5L18 6L17 6L17 7L18 7L18 6L19 6L19 5L20 5L20 4ZM12 7L12 8L13 8L13 7ZM14 7L14 9L15 9L15 7ZM16 8L16 9L17 9L17 8ZM23 9L23 10L24 10L24 13L23 13L23 14L24 14L24 13L26 13L26 14L25 14L25 16L26 16L26 17L25 17L25 18L27 18L27 19L28 19L28 18L27 18L27 15L28 15L28 14L27 14L27 11L28 11L28 10L24 10L24 9ZM6 11L6 12L8 12L8 11ZM15 11L15 12L16 12L16 13L13 13L13 12L12 12L12 13L11 13L11 14L10 14L10 15L11 15L11 14L12 14L12 13L13 13L13 14L16 14L16 15L17 15L17 14L16 14L16 13L17 13L17 12L16 12L16 11ZM21 11L21 12L22 12L22 11ZM3 13L3 14L4 14L4 15L6 15L6 16L5 16L5 17L4 17L4 18L7 18L7 19L6 19L6 20L7 20L7 19L8 19L8 20L9 20L9 19L10 19L10 24L11 24L11 22L12 22L12 21L13 21L13 22L16 22L16 21L17 21L17 20L16 20L16 19L18 19L18 18L16 18L16 17L17 17L17 16L16 16L16 17L15 17L15 15L14 15L14 17L15 17L15 18L13 18L13 17L12 17L12 16L13 16L13 15L12 15L12 16L9 16L9 18L8 18L8 17L6 17L6 16L7 16L7 15L6 15L6 14L4 14L4 13ZM0 14L0 15L1 15L1 14ZM26 14L26 15L27 15L27 14ZM22 17L22 18L23 18L23 17ZM15 18L15 19L14 19L14 20L13 20L13 19L12 19L12 20L11 20L11 21L12 21L12 20L13 20L13 21L16 21L16 20L15 20L15 19L16 19L16 18ZM21 21L21 24L24 24L24 21ZM22 22L22 23L23 23L23 22ZM12 23L12 24L13 24L13 23ZM14 23L14 25L16 25L16 28L17 28L17 25L16 25L16 24L15 24L15 23ZM20 25L20 26L19 26L19 27L18 27L18 28L19 28L19 27L20 27L20 26L21 26L21 27L23 27L23 25ZM24 25L24 27L25 27L25 25ZM0 0L0 7L7 7L7 0ZM1 1L1 6L6 6L6 1ZM2 2L2 5L5 5L5 2ZM22 0L22 7L29 7L29 0ZM23 1L23 6L28 6L28 1ZM24 2L24 5L27 5L27 2ZM0 22L0 29L7 29L7 22ZM1 23L1 28L6 28L6 23ZM2 24L2 27L5 27L5 24Z" fill="#000000"/></g></g></svg>
