<svg width="35" height="24" viewBox="0 0 35 24" fill="none" xmlns="http://www.w3.org/2000/svg">
<path d="M34.3749 12.0605C34.3671 12.1035 34.3553 12.1465 34.3436 12.1855C34.2382 12.6504 33.8202 12.9785 33.3436 12.9668L3.81238 12.9668L12.9999 22.1543C13.1991 22.3418 13.3085 22.5996 13.3124 22.873C13.3085 23.2793 13.0624 23.6426 12.6835 23.7949C12.3085 23.9433 11.8749 23.8535 11.5936 23.5605L0.687378 12.6855L-0.00012207 11.9668L0.687378 11.248L11.5936 0.37303C11.8358 0.0761547 12.2225 -0.060564 12.5975 0.0253735C12.9686 0.111311 13.2616 0.40428 13.3475 0.775373C13.4335 1.15037 13.2968 1.53709 12.9999 1.77928L3.81238 10.9668L33.3436 10.9668C33.6327 10.9551 33.91 11.0722 34.1053 11.2793C34.3046 11.4902 34.4022 11.7754 34.3749 12.0605Z" fill="white"/>
</svg>
